/* XPM */
static char *_070153a46294749daf5c07e26ea7bc81pk1E0pCb6tV0IBd[] = {
/* columns rows colors chars-per-pixel */
"64 64 154 2 ",
"   c None",
".  c black",
"X  c #010000",
"o  c #020000",
"O  c #030000",
"+  c #040000",
"@  c #050000",
"#  c #060000",
"$  c #070000",
"%  c #080101",
"&  c #0A0303",
"*  c #0F0707",
"=  c gray3",
"-  c #0C0C0C",
";  c #110808",
":  c #100A0A",
">  c #120D0D",
",  c #160F0F",
"<  c #101010",
"1  c #161212",
"2  c #171212",
"3  c #1B1818",
"4  c gray10",
"5  c #1D1919",
"6  c #1E1A1A",
"7  c #221D1D",
"8  c #241F1F",
"9  c #262222",
"0  c gray14",
"q  c #272424",
"w  c #282323",
"e  c #282828",
"r  c #2B2828",
"t  c gray18",
"y  c #322F2F",
"u  c #343131",
"i  c #373434",
"p  c #3A3737",
"a  c #393939",
"s  c #3A3A3A",
"d  c #3F3F3F",
"f  c #414141",
"g  c #444444",
"h  c #464646",
"j  c gray29",
"k  c #4E4B4B",
"l  c #4C4C4C",
"z  c #4F4D4D",
"x  c #585656",
"c  c #595757",
"v  c #595858",
"b  c gray37",
"n  c #5F5F5F",
"m  c #606060",
"M  c #626262",
"N  c #636262",
"B  c #676666",
"V  c #696767",
"C  c #6B6969",
"Z  c #6C6B6B",
"A  c #706F6F",
"S  c #717070",
"D  c #737272",
"F  c #767676",
"G  c #787676",
"H  c #787777",
"J  c gray47",
"K  c #7A7878",
"L  c #7C7B7B",
"P  c #7E7E7E",
"I  c #807F7F",
"U  c #848484",
"Y  c gray52",
"T  c #878686",
"R  c #8A8989",
"E  c #8C8B8B",
"W  c #8D8D8D",
"Q  c #8F8E8E",
"!  c #909090",
"~  c gray57",
"^  c #929191",
"/  c gray58",
"(  c #979696",
")  c #999898",
"_  c #9B9A9A",
"`  c #9E9D9D",
"'  c #9F9E9E",
"]  c gray63",
"[  c #A2A1A1",
"{  c #A2A2A2",
"}  c #A4A4A4",
"|  c #A5A4A4",
" . c #A7A6A6",
".. c gray66",
"X. c #ACABAB",
"o. c #ADACAC",
"O. c #AEADAD",
"+. c gray69",
"@. c #B2B1B1",
"#. c #B5B4B4",
"$. c #B6B6B6",
"%. c gray72",
"&. c #BCBCBC",
"*. c gray75",
"=. c #C3C2C2",
"-. c #C4C3C3",
";. c #C5C4C4",
":. c #C6C6C6",
">. c gray78",
",. c #CAC9C9",
"<. c #CACACA",
"1. c #CCCBCB",
"2. c #CDCDCD",
"3. c #D0D0D0",
"4. c #D1D0D0",
"5. c gray82",
"6. c #D2D2D2",
"7. c #D5D5D5",
"8. c #D6D5D5",
"9. c gray84",
"0. c #D7D7D7",
"q. c #D8D8D8",
"w. c #DAD9D9",
"e. c #DADADA",
"r. c #DBDADA",
"t. c gray86",
"y. c #DCDBDB",
"u. c gainsboro",
"i. c gray88",
"p. c #E1E0E0",
"a. c #E2E2E2",
"s. c gray89",
"d. c #E4E3E3",
"f. c #E6E6E6",
"g. c #E7E7E7",
"h. c gray91",
"j. c #ECECEC",
"k. c gray93",
"l. c #EEEDED",
"z. c #EEEEEE",
"x. c gray94",
"c. c #F2F1F1",
"v. c #F4F4F4",
"b. c gray96",
"n. c #F6F6F6",
"m. c gray97",
"M. c #F8F8F8",
"N. c #F9F9F9",
"B. c gray98",
"V. c #FBFBFB",
"C. c gray99",
"Z. c #FDFDFD",
"A. c #FEFEFE",
"S. c white",
/* pixels */
"                                                                                                                                ",
"                                                                                                                                ",
"                                                                                                                                ",
"                                                                                                                                ",
"                                                                                                                                ",
"                                                                        . . .                                                   ",
"                                                                      . . . .                                                   ",
"                                                                    . . . . .                                                   ",
"                                . .                               . . . . . .                                                   ",
"                                . . .                           . . . . . . .                                                   ",
"                                . . . .                       . . . . . . . .                                                   ",
"                                . . . . .               . . . . . . . . . . .                                                   ",
"                                . . . . . . .   . . . . . . . . . . . . . . .                                                   ",
"                                . . . . . . . . . . . . . . . . . . . . . . . . .                                               ",
"                                . . . . . . . . . . . + + + % + + + + + . . . . . . .                                           ",
"                                . . . . . . . . + % + * C _ } O. .` H 7 + % + . . . . .                                         ",
"                                . . . . . . + % 6 ! 5.B.Z.Z.Z.Z.Z.Z.Z.Z.y.[ y + + . . . . .                                     ",
"                                . . . . . + 2 ) z.Z.Z.Z.Z.Z.Z.Z.Z.Z.Z.Z.Z.Z.m.#.r % . . . . . . . . . . . . .                   ",
"                                . . . . + v y.Z.Z.Z.Z.Z.Z.Z.Z.Z.Z.Z.Z.Z.Z.Z.Z.Z.z.H . + . . . . . . . . . . . .                 ",
"                              . . . + . U m.Z.Z.Z.Z.Z.Z.Z.Z.Z.Z.Z.Z.Z.Z.Z.Z.Z.Z.Z.V.} . + . . . . . . . . . .                   ",
"                            . . . . . R B.Z.Z.Z.Z.Z.Z.Z.Z.Z.Z.Z.Z.Z.Z.Z.Z.Z.Z.Z.Z.Z.Z.+.. . . . . . . . . .                     ",
"                          . . . . + D B.Z.Z.q.T T T T t.Z.Z.Z.Z.Z.Z.Z.Z.Z.Z.( T T 5.Z.Z.` . . . . . . . .                       ",
"                          . . . + p x.Z.Z.Z.>.. . . . m Z.Z.Z.Z.Z.Z.Z.Z.Z.Z.j . . *.Z.Z.B.Z + . . . . .                         ",
"                        . . . . % ;.Z.Z.Z.Z.>.. . . . . %.Z.Z.Z.Z.Z.Z.Z.Z.Z.j . . *.Z.Z.Z.u.6 + . . .                           ",
"                        . . . + V Z.Z.Z.Z.Z.,.. . . . . t z.Z.Z.Z.Z.Z.Z.Z.Z.l . . *.Z.Z.Z.Z.( + . . .                           ",
"        . . . . . . . . . . . % ,.Z.Z.Z.Z.Z.>.. . s P . . ^ Z.Z.Z.Z.Z.Z.Z.Z.j . . %.Z.Z.Z.Z.g.1 . . . .                         ",
"        . . . . . . . . . . + u Z.Z.Z.Z.Z.Z.>.. . h g.- . . q.Z.Z.Z.Z.Z.Z.Z.j . . *.Z.Z.Z.Z.Z.H + . . .                         ",
"          . . . . . . . . . + _ Z.Z.Z.Z.Z.Z.>.. . h Z.} . . n V.Z.Z.Z.Z.Z.Z.j . . *.Z.Z.Z.Z.Z.=.% . . .                         ",
"          . . . . . . . . . + ,.Z.Z.Z.Z.Z.Z.>.. . h Z.m.h . . %.Z.Z.Z.Z.Z.Z.l . . *.Z.Z.Z.Z.Z.g.+ . . .                         ",
"            . . . . . . . . . p.Z.Z.Z.Z.Z.Z.>.. . g Z.Z.>.. . e x.Z.Z.Z.Z.Z.j . . %.Z.Z.Z.Z.Z.Z.; + . . .                       ",
"              . . . . . . + . B.Z.Z.Z.Z.Z.Z.,.. . g Z.Z.Z.L . . Q Z.Z.Z.Z.Z.j . . *.Z.Z.Z.Z.Z.Z.k + . . .                       ",
"                  . . . . . . Z.Z.Z.Z.Z.Z.Z.>.. . h Z.Z.Z.p.4 . = 0.Z.Z.Z.Z.j . . *.Z.Z.Z.Z.Z.Z.C + . . .                       ",
"                    . . . + . Z.Z.Z.Z.Z.Z.Z.>.. . h Z.Z.Z.Z.[ . . m B.Z.Z.Z.l . . *.Z.Z.Z.Z.Z.Z.D + . . . .                     ",
"                    . . . . . Z.Z.Z.Z.Z.Z.Z.>.. . h Z.Z.Z.Z.m.g . . %.Z.Z.Z.j . . %.Z.Z.Z.Z.Z.Z.c + . . . . .                   ",
"                    . . . . . h.Z.Z.Z.Z.Z.Z.>.. . h Z.Z.Z.Z.Z.,.. . t z.Z.Z.j . . *.Z.Z.Z.Z.Z.Z.7 + . . . . . .                 ",
"                      . . . + 6.Z.Z.Z.Z.Z.Z.>.. . g Z.Z.Z.Z.Z.Z.F . . ^ Z.Z.j . . *.Z.Z.Z.Z.Z.z.. . . . . . . . .               ",
"                      . . . + ..Z.Z.Z.Z.Z.Z.,.. . g Z.Z.Z.Z.Z.Z.p.. . . q.Z.l . . *.Z.Z.Z.Z.Z.,.% . . . . . . . . .             ",
"                      . . . + v Z.Z.Z.Z.Z.Z.>.. . h Z.Z.Z.Z.Z.Z.Z.} . . N Z.j . . %.Z.Z.Z.Z.Z.^ + . . . . . . . . . .           ",
"                      . . . + + u.Z.Z.Z.Z.Z.>.. . h Z.Z.Z.Z.Z.Z.Z.m.h . . *.l . . *.Z.Z.Z.Z.m.9 + . . . . . . . . . .           ",
"                        . . . + R Z.Z.Z.Z.Z.>.. . h Z.Z.Z.Z.Z.Z.Z.Z.>.. . s 0 . . *.Z.Z.Z.Z.#.+ . . . . . . . . . .             ",
"                        . . . . > y.Z.Z.Z.Z.,.. . h Z.Z.Z.Z.Z.Z.Z.Z.Z.L . . . . . %.Z.Z.Z.x.p + . . .                           ",
"                        . . . . % N B.Z.Z.Z.>.. . h Z.Z.Z.Z.Z.Z.Z.Z.Z.p.< . . . . *.Z.Z.Z.^ + . . . .                           ",
"                      . . . . . . + ' Z.Z.Z.>.. . d Z.Z.Z.Z.Z.Z.Z.Z.Z.Z.[ . . . . *.Z.Z.;.. . . . .                             ",
"                    . . . . . . . . . #.Z.Z.x.0.q.u.Z.Z.Z.Z.Z.Z.Z.Z.Z.Z.m.q.q.q.0.z.Z.0.6 + . . .                               ",
"                  . . . . . . . . . + & @.Z.Z.Z.Z.Z.Z.Z.Z.Z.Z.Z.Z.Z.Z.Z.Z.Z.Z.Z.Z.Z.5.9 + . . . .                               ",
"                . . . . . . . . . . . + . ^ B.Z.Z.Z.Z.Z.Z.Z.Z.Z.Z.Z.Z.Z.Z.Z.Z.Z.Z.@.1 + . . . .                                 ",
"              . . . . . . . . . . . . . + + l ,.Z.Z.Z.Z.Z.Z.Z.Z.Z.Z.Z.Z.Z.Z.Z.q.A . + . . . .                                   ",
"                . . . . . . . . . . . . . . + % m >.m.Z.Z.Z.Z.Z.Z.Z.Z.Z.Z.5.U ; + . . . . . .                                   ",
"                                    . . . . . . + % , L o.2.8.q.0.5.@.E w % + + . . . . . . .                                   ",
"                                      . . . . . . . + + + % + . . % + + + . . . . . . . . . .                                   ",
"                                          . . . . . . . . . . . . . . . . . . . . . . . . . .                                   ",
"                                              . . . . . . . . . . . . . . . . . . . . . . . .                                   ",
"                                                . . . . . . . . . . . . . .       . . . . . .                                   ",
"                                                . . . . . . . . .                   . . . . .                                   ",
"                                                . . . . . . .                         . . . .                                   ",
"                                                . . . . . .                             . . .                                   ",
"                                                . . . . . .                                                                     ",
"                                                . . . . .                                                                       ",
"                                                . . . .                                                                         ",
"                                                  .                                                                             ",
"                                                                                                                                ",
"                                                                                                                                ",
"                                                                                                                                ",
"                                                                                                                                "
};
